<?xml version="1.0" standalone="no"?> <!DOCTYPE svg PUBLIC "-//W3C//DTD SVG 20010904//EN" "http://www.w3.org/TR/2001/REC-SVG-20010904/DTD/svg10.dtd"> <svg version="1.0" xmlns="http://www.w3.org/2000/svg" width="227.000000pt" height="159.000000pt" viewBox="0 0 227.000000 159.000000" preserveAspectRatio="xMidYMid meet"> <g transform="translate(0.000000,159.000000) scale(0.100000,-0.100000)" fill="#0f392f" stroke="none"> <path d="M0 795 l0 -795 1135 0 1135 0 0 795 0 795 -1135 0 -1135 0 0 -795z m1080 660 c0 -17 -11 -45 -57 -144 -31 -67 -80 -139 -157 -230 -51 -61 -86 -149 -86 -216 0 -75 17 -130 74 -244 54 -110 88 -199 81 -212 -7 -10 -127 -12 -160 -3 -12 3 -34 31 -53 67 -18 34 -41 73 -52 87 -19 23 -21 24 -34 7 -7 -9 -21 -42 -31 -72 -16 -54 -18 -55 -53 -55 -21 0 -56 9 -80 20 -47 21 -45 12 -22 115 5 22 11 52 14 66 3 14 0 33 -7 43 -11 15 -15 15 -54 -6 -74 -41 -123 -78 -202 -154 -43 -41 -81 -74 -85 -74 -3 0 -6 13 -6 29 0 70 90 217 204 334 102 105 183 173 447 377 46 36 133 113 194 172 60 59 113 107 118 108 4 0 7 -7 7 -15z m130 -51 c78 -80 191 -176 365 -311 185 -143 331 -277 398 -364 57 -73 130 -208 141 -261 9 -40 -14 -36 -50 7 -32 39 -179 161 -234 194 -19 11 -45 21 -57 21 -19 0 -23 -5 -23 -32 0 -17 7 -60 16 -95 9 -35 14 -70 11 -77 -11 -29 -157 -61 -157 -35 0 24 -43 129 -53 129 -14 0 -33 -26 -67 -91 -44 -85 -50 -89 -139 -89 -43 0 -80 3 -84 6 -8 9 25 99 71 190 59 117 82 193 82 268 0 91 -16 123 -151 303 -57 76 -86 126 -113 195 -20 51 -36 96 -36 101 0 17 19 3 80 -59z m-611 -46 c71 -44 64 -179 -11 -219 -33 -18 -102 -15 -133 5 -40 27 -67 94 -55 138 12 41 51 85 83 91 31 7 95 -1 116 -15z m1146 8 c23 -10 41 -28 55 -57 28 -54 20 -101 -25 -146 -29 -29 -40 -33 -84 -33 -91 0 -150 78 -122 163 25 75 98 105 176 73z m-1345 -792 c0 -3 -11 -15 -25 -26 -74 -58 7 -108 251 -154 144 -28 160 -29 449 -29 324 0 444 11 610 51 102 26 165 60 165 91 0 9 -10 28 -22 41 l-23 25 34 -7 c55 -10 124 -49 141 -78 14 -26 14 -29 -10 -52 -14 -14 -56 -38 -95 -54 -70 -28 -70 -28 -75 -73 l-5 -44 -65 0 c-60 0 -65 2 -68 23 -2 13 -10 26 -17 29 -8 3 -61 0 -117 -6 -84 -9 -106 -15 -117 -31 -11 -17 -25 -20 -81 -20 -48 0 -71 4 -80 15 -18 21 -256 21 -284 0 -13 -10 -43 -15 -83 -15 -50 0 -64 4 -72 18 -8 15 -28 21 -98 27 -154 13 -156 13 -163 -15 -6 -23 -10 -25 -70 -25 l-65 0 -5 45 -5 44 -75 28 c-71 27 -120 64 -120 92 0 22 45 56 106 81 59 25 84 30 84 19z"/> </g> </svg>